<?xml version="1.0" encoding="UTF-8"?><svg id="Layer_2" xmlns="http://www.w3.org/2000/svg" viewBox="0 0 1047.95 365.35"><defs><style>.cls-1{fill:#231f20;}</style></defs><g id="Layer_1-2"><path class="cls-1" d="m32.92,307.02c-.36-6.84,1.08-13.32,3.96-19.44,4.68-9.72,10.8-18.72,17.28-27,12.96-16.56,26.64-32.04,42.12-45.36,2.52-2.16,3.24-4.32,2.52-7.56-2.88-12.6-10.44-21.96-20.52-29.52-9.72-7.2-20.52-12.24-30.96-18.36-6.84-3.96-13.68-7.56-20.16-11.52C6.65,135.66-1.27,116.94.16,94.26c1.44-22.68,9.36-43.2,23.04-61.2,9.72-12.6,21.6-23.04,36.36-28.8,12.96-5.04,25.92-5.4,39.24-2.16,4.32,1.08,8.64,3.24,10.8,6.84,1.08,1.8,2.16,3.6,2.52,5.4.36,2.52-1.08,5.04-3.24,5.76-2.52.72-4.68-.36-5.76-3.24-1.44-3.6-3.96-4.32-7.2-5.04-11.52-2.52-23.04-2.16-33.84,2.88-16.92,7.92-28.8,20.16-38.16,36.36-7.92,13.68-12.6,28.8-13.32,44.64-.72,17.64,4.68,32.76,20.52,42.48,10.08,6.12,20.16,11.88,30.24,17.28,10.08,5.4,19.8,11.16,28.44,18.72,8.64,7.56,18.36,16.2,18.36,27.72,0,.72.36.72.72,1.8,7.92-7.2,15.48-14.4,23.4-20.88,4.32-3.6,8.28-8.28,12.6-11.52,2.88-2.16,6.84-1.8,8.64,1.08,1.8,2.52,1.8,5.76-.72,7.56-14.04,10.08-27.36,21.6-39.96,34.2-1.08,1.08-2.16,2.16-2.16,4.32,0,14.04-3.24,27-8.64,39.6-6.84,15.84-14.76,30.96-24.84,45-3.96,5.4-8.28,10.08-13.32,14.04-3.6,2.88-7.56,5.04-12.24,5.76-9.36,1.44-18.36-5.76-18.72-15.84Zm30.6-3.96c16.2-20.88,24.84-44.64,34.92-69.48.72-1.8.72-3.96,1.08-6.48l-2.16,1.44c-15.48,15.48-30.96,30.96-42.84,49.32-3.24,5.04-5.4,10.44-8.64,15.48-2.16,3.6-2.88,7.56-2.52,11.88.72,6.48,5.04,9,10.44,5.76,3.6-2.16,7.2-4.68,9.72-7.92Z"/><path class="cls-1" d="m178,228.18c-1.8-6.48-1.08-14.04-.36-20.88.36-1.44.36-2.88.72-3.96-1.08,1.08-1.8,2.52-2.88,3.96-5.04,7.56-9.72,16.56-16.2,23.04-4.68,5.04-11.52,7.92-18,4.68-6.84-2.88-10.08-10.44-10.44-18-.72-15.12,5.76-31.32,14.4-43.2,7.56-11.16,21.96-26.28,36.72-18.72,5.04,2.52,8.28,6.84,9.72,11.52,2.88-4.32,5.76-8.64,9-12.6,4.68-5.76,12.24,2.16,7.56,7.56-12.6,15.48-20.16,35.28-20.52,55.44,0,3.6-.36,11.88,4.32,13.32,3.6,1.08,6.48-4.32,8.28-6.84,5.76-9.36,9.72-19.08,14.04-29.16,2.52-6.48,11.52-.72,9,5.76-2.88,6.84-5.04,13.32-8.64,19.8-2.88,5.4-6.12,11.52-10.44,16.2-9.36,9.36-22.68,4.68-26.28-7.92Zm-22.68-10.08c9.36-13.32,18.36-27,27.36-40.68,0-2.52-.36-5.04-1.44-7.56-2.88-6.48-9-6.84-14.4-3.24-11.52,7.2-19.44,21.6-23.04,34.56-1.44,6.12-4.32,15.84-.72,21.6,4.32,6.48,9.72-.72,12.24-4.68Z"/><path class="cls-1" d="m233.44,308.82c-7.92-1.44-12.96-5.4-15.84-12.6-3.6-8.64-4.68-17.64-5.4-27.72-4.32-42.48,9.72-119.52,25.2-162,1.8-5.4,3.96-10.8,6.12-15.84.72-2.52,1.8-5.4,2.88-7.92.36-.36.36-1.08.72-1.8-38.52,7.2-74.88,16.2-105.84,23.76-.36,5.04-1.44,6.12-6.12,6.48h-2.52c-.72,0-1.08.36-2.16.36-.36,0-.72,0-1.08-.36h-.72c-1.8,0-2.88.36-3.24.36l-.36.36-.36-.36c-2.52-1.8-1.08-8.64-.36-11.16.36-.72.72-1.08,1.44-1.08,1.44-.72,3.96-1.44,6.48-2.16,3.24-1.08,6.84-1.8,9-2.52,35.64-9,65.52-15.84,93.6-21.6h.72c4.68-1.08,9.72-1.8,14.4-2.52,1.44-.36,2.52-1.08,3.24-2.88,3.6-7.92,7.56-15.84,11.16-23.76l1.8-3.24c.72-1.8,1.44-3.24,2.52-4.68,1.08-1.8,2.52-2.52,4.32-2.52,1.08,0,2.16.36,2.88.72,1.8,1.8,2.16,5.76,0,8.28-.72.72-1.8,2.16-2.52,3.6-2.52,5.4-5.04,10.8-7.2,16.2l-2.16,5.04-.36.36h.72l110.16-18.36h1.08c1.08-.36,2.16-.36,3.24-.72s2.16-1.08,2.52-1.44c1.44-1.44,2.52-1.8,3.6-1.8.72,0,1.44,0,2.16.36,2.52,1.08,3.6,2.52,3.96,5.04,0,2.16-1.08,3.96-2.88,5.4-1.44.72-2.88,1.08-4.32,1.44-9,1.8-16.92,3.24-25.2,4.68l-60.84,10.08c-11.52,1.8-23.04,3.6-34.56,5.76q-4.68.72-6.84,5.4c0,.36-.36.72-.36,1.08-.36.72-.72,1.08-.72,1.8-.72,1.44-5.4,12.96-5.76,14.04l-3.24,9c-2.16,6.12-4.32,12.24-6.12,18.36-9.36,31.68-15.84,65.52-18,97.92-1.8,26.28-.72,44.64.36,50.76.72,5.04,1.8,9.72,3.24,14.04,1.44,5.4,5.4,8.64,10.44,8.64,1.44,0,2.88,0,3.96-.72,5.04-1.08,9-3.96,13.32-9,5.76-6.48,10.44-14.76,14.04-25.56,1.44-3.24,2.52-6.84,3.24-10.08.72-1.8,1.08-3.6,1.8-5.4v-.72l1.08-2.52c.72-1.44,2.16-2.16,3.6-2.16h1.08c1.8.72,2.88,1.8,2.88,3.6.36.72.36,1.8,0,2.88-3.6,18.72-10.08,33.48-19.8,45.72-5.04,6.12-10.8,10.44-17.28,12.6-2.52.72-5.04,1.44-7.56,1.44-1.08,0-2.16,0-3.24-.36Z"/><path class="cls-1" d="m175.84,350.22c0-6.12,1.08-11.52,3.24-16.92,4.68-11.16,11.52-20.52,19.44-28.8,13.32-14.04,29.16-25.2,45.72-34.92,7.56-4.68,15.48-9.36,23.4-13.68,1.8-1.08,2.88-2.16,3.6-4.32,3.96-13.68,8.28-27,12.24-40.32v-1.44c-.72.72-1.44,1.44-2.16,1.8-4.32,5.76-8.64,11.16-13.32,16.56-2.16,2.16-4.68,4.32-7.2,5.76-5.4,2.88-9.36,0-11.52-5.4-9.36-22.32,6.84-60.48,13.32-68.4,1.08-1.44,2.16-2.88,3.6-3.6,2.16-1.44,4.68-1.08,6.12.72,1.8,1.8,1.8,3.96,0,6.12-5.4,5.4-21.24,44.28-12.96,58.32,1.44-1.44,2.52-2.16,3.24-3.24,9.72-12.6,19.44-25.56,28.8-38.16,3.96-5.04,7.2-10.44,10.44-15.84,2.88-3.96,5.76-4.68,10.08-2.16,2.52,1.44,3.6,4.32,1.44,6.48-10.8,10.8-13.32,24.84-17.64,38.52-3.96,12.6-7.56,25.2-11.52,37.8v1.8c1.44-.72,2.52-1.08,3.6-1.44,9.72-5.04,24.84-12.96,34.2-17.64,3.24-1.44,6.12-.72,7.56,1.8,1.44,2.52.36,5.4-2.88,7.2-3.24,2.16-16.56,9-44.64,23.04-2.52,1.44-3.6,3.24-4.68,5.76-7.2,19.8-15.48,39.24-28.08,56.52-9.36,12.96-20.16,24.48-33.48,33.84-6.12,3.96-12.24,7.2-19.44,8.64-1.44.36-3.24.72-4.68.72-9.36.36-15.48-5.76-15.84-15.12Zm25.56,1.8c7.2-3.24,12.96-7.92,19.08-12.96,16.2-14.76,28.08-32.76,37.08-52.56,2.52-5.04,4.68-10.44,6.84-15.48l-.72-.72c-1.08.36-2.16,1.08-3.24,1.44-7.92,5.04-15.84,9.72-23.4,14.76-11.88,7.92-23.4,16.56-32.76,27.36-7.2,7.92-13.68,16.56-16.56,27.36-1.08,2.88-1.08,6.12-1.08,9.36,0,2.88,1.44,4.32,4.32,3.96,3.6-.36,7.2-1.08,10.44-2.52Z"/><path class="cls-1" d="m364.84,228.18c-1.8-6.48-1.08-14.04-.36-20.88.36-1.44.36-2.88.72-3.96-1.08,1.08-1.8,2.52-2.88,3.96-5.04,7.56-9.72,16.56-16.2,23.04-4.68,5.04-11.52,7.92-18,4.68-6.84-2.88-10.08-10.44-10.44-18-.72-15.12,5.76-31.32,14.4-43.2,7.56-11.16,21.96-26.28,36.72-18.72,5.04,2.52,8.28,6.84,9.72,11.52,2.88-4.32,5.76-8.64,9-12.6,4.68-5.76,12.24,2.16,7.56,7.56-12.6,15.48-20.16,35.28-20.52,55.44,0,3.6-.36,11.88,4.32,13.32,3.6,1.08,6.48-4.32,8.28-6.84,5.76-9.36,9.72-19.08,14.04-29.16,2.52-6.48,11.52-.72,9,5.76-2.88,6.84-5.04,13.32-8.64,19.8-2.88,5.4-6.12,11.52-10.44,16.2-9.36,9.36-22.68,4.68-26.28-7.92Zm-22.68-10.08c9.36-13.32,18.36-27,27.36-40.68,0-2.52-.36-5.04-1.44-7.56-2.88-6.48-9-6.84-14.4-3.24-11.52,7.2-19.44,21.6-23.04,34.56-1.44,6.12-4.32,15.84-.72,21.6,4.32,6.48,9.72-.72,12.24-4.68Z"/><path class="cls-1" d="m398.68,245.1c-2.16-9,1.08-34.56,2.52-46.44,3.6-36.72,23.04-101.16,25.2-107.28,2.16-1.8,4.32-1.8,6.48-.72,2.52,1.08,3.96,3.96,2.88,6.84l-7.56,26.64c-5.76,19.08-11.16,38.52-14.04,57.96-1.44,8.64-2.52,17.28-3.96,25.92v3.96c1.08-1.44,1.44-2.16,1.8-2.88,6.84-15.12,16.2-29.16,26.64-42.12,2.52-2.88,5.04-5.76,7.92-7.92,6.84-5.04,13.32-2.16,14.04,6.12.36,2.52,0,4.68,0,7.2,0,7.56,0,15.48.36,23.4,0,1.8.36,3.6.72,6.12,1.08-1.08,1.8-1.8,2.52-2.88,2.52-2.88,4.68-6.12,7.56-9,1.8-1.8,3.96-3.6,6.12-5.04,7.2-5.04,12.96-4.32,18.72,2.16,3.24,3.24,6.12,6.84,9.36,10.44,4.32,4.32,8.64,7.92,14.4,10.44,1.08.72,3.96,1.8,6.48,2.88,2.88.72,4.32,3.96,3.6,6.48q-.36,0-.36.36c-.36,1.44-1.8,2.52-3.6,2.52-9-.36-16.2-4.68-22.32-10.44-4.68-3.96-8.64-8.64-12.6-12.6l-3.24-3.6c-.72-.72-2.16-1.08-3.6-.72-2.16,1.08-3.6,2.52-5.04,3.96-4.32,5.4-8.64,11.16-12.6,16.56-1.44,1.8-2.16,3.24-3.24,4.68-1.8,2.16-3.96,3.24-6.48,2.52-2.88-.36-4.32-2.52-4.68-5.04-.72-9-1.8-18-2.52-27-.36-5.76,0-11.52,0-18-.36-.36-1.8,1.44-2.52,1.8-11.52,14.4-21.6,29.52-28.44,46.44-2.88,6.84-4.68,14.04-5.4,21.24-.72,3.6-2.88,6.48-5.76,8.28-3.6,2.52-7.92.72-9.36-3.24Z"/><path class="cls-1" d="m610,307.02c-.36-6.84,1.08-13.32,3.96-19.44,4.68-9.72,10.8-18.72,17.28-27,12.96-16.56,26.64-32.04,42.12-45.36,2.52-2.16,3.24-4.32,2.52-7.56-2.88-12.6-10.44-21.96-20.52-29.52-9.72-7.2-20.52-12.24-30.96-18.36-6.84-3.96-13.68-7.56-20.16-11.52-20.52-12.6-28.44-31.32-27-54,1.44-22.68,9.36-43.2,23.04-61.2,9.72-12.6,21.6-23.04,36.36-28.8,12.96-5.04,25.92-5.4,39.24-2.16,4.32,1.08,8.64,3.24,10.8,6.84,1.08,1.8,2.16,3.6,2.52,5.4.36,2.52-1.08,5.04-3.24,5.76-2.52.72-4.68-.36-5.76-3.24-1.44-3.6-3.96-4.32-7.2-5.04-11.52-2.52-23.04-2.16-33.84,2.88-16.92,7.92-28.8,20.16-38.16,36.36-7.92,13.68-12.6,28.8-13.32,44.64-.72,17.64,4.68,32.76,20.52,42.48,10.08,6.12,20.16,11.88,30.24,17.28,10.08,5.4,19.8,11.16,28.44,18.72,8.64,7.56,18.36,16.2,18.36,27.72,0,.72.36.72.72,1.8,7.92-7.2,15.48-14.4,23.4-20.88,4.32-3.6,8.28-8.28,12.6-11.52,2.88-2.16,6.84-1.8,8.64,1.08,1.8,2.52,1.8,5.76-.72,7.56-14.04,10.08-27.36,21.6-39.96,34.2-1.08,1.08-2.16,2.16-2.16,4.32,0,14.04-3.24,27-8.64,39.6-6.84,15.84-14.76,30.96-24.84,45-3.96,5.4-8.28,10.08-13.32,14.04-3.6,2.88-7.56,5.04-12.24,5.76-9.36,1.44-18.36-5.76-18.72-15.84Zm30.6-3.96c16.2-20.88,24.84-44.64,34.92-69.48.72-1.8.72-3.96,1.08-6.48l-2.16,1.44c-15.48,15.48-30.96,30.96-42.84,49.32-3.24,5.04-5.4,10.44-8.64,15.48-2.16,3.6-2.88,7.56-2.52,11.88.72,6.48,5.04,9,10.44,5.76,3.6-2.16,7.2-4.68,9.72-7.92Z"/><path class="cls-1" d="m755.09,228.18c-1.8-6.48-1.08-14.04-.36-20.88.36-1.44.36-2.88.72-3.96-1.08,1.08-1.8,2.52-2.88,3.96-5.04,7.56-9.72,16.56-16.2,23.04-4.68,5.04-11.52,7.92-18,4.68-6.84-2.88-10.08-10.44-10.44-18-.72-15.12,5.76-31.32,14.4-43.2,7.56-11.16,21.96-26.28,36.72-18.72,5.04,2.52,8.28,6.84,9.72,11.52,2.88-4.32,5.76-8.64,9-12.6,4.68-5.76,12.24,2.16,7.56,7.56-12.6,15.48-20.16,35.28-20.52,55.44,0,3.6-.36,11.88,4.32,13.32,3.6,1.08,6.48-4.32,8.28-6.84,5.76-9.36,9.72-19.08,14.04-29.16,2.52-6.48,11.52-.72,9,5.76-2.88,6.84-5.04,13.32-8.64,19.8-2.88,5.4-6.12,11.52-10.44,16.2-9.36,9.36-22.68,4.68-26.28-7.92Zm-22.68-10.08c9.36-13.32,18.36-27,27.36-40.68,0-2.52-.36-5.04-1.44-7.56-2.88-6.48-9-6.84-14.4-3.24-11.52,7.2-19.44,21.6-23.04,34.56-1.44,6.12-4.32,15.84-.72,21.6,4.32,6.48,9.72-.72,12.24-4.68Z"/><path class="cls-1" d="m862.72,200.46c-11.88,7.92-21.96,18-30.6,29.16-2.16,12.24-4.32,24.48-6.84,37.08-2.88,14.4-6.12,28.8-10.08,43.2-1.44,6.84-3.6,14.04-5.4,20.88-1.8,5.4-2.52,13.68-7.92,17.28-5.04,3.24-11.52,1.44-13.32-4.32-1.8-4.32-1.44-9.72-1.44-14.4,0-10.44,1.44-20.88,3.6-30.96,5.04-25.56,16.2-51.48,32.4-73.08,1.8-10.8,3.24-21.6,4.32-32.4l-3.24,6.48c-2.88,5.76-6.48,11.16-10.08,16.2-3.6,5.04-8.28,13.68-15.84,11.88-6.12-1.44-7.56-8.28-7.92-13.68-.36-6.84,0-13.68,1.8-20.52,3.24-11.88,8.64-27.72,20.16-34.2,7.2-3.96,17.28-3.24,23.04,2.16l.36-.36c3.6-4.68,11.88,0,7.92,5.04l-3.24,4.68c0,1.08-.72,1.8-1.08,2.52-1.44,12.96-2.88,25.92-4.68,38.52,7.2-7.2,14.76-13.68,23.4-19.08,5.04-3.6,10.08,4.68,4.68,7.92Zm-43.92,48.96c-9,16.2-15.48,33.84-19.08,52.2-1.8,9-2.88,18-2.88,27v9.72s.36.36.36.72c.36-.72.72-1.08.72-1.44.72-1.8,1.08-3.24,1.44-5.04.72-2.88,1.8-5.76,2.52-9,6.84-24.48,12.6-48.96,16.92-74.16Zm11.16-80.28c-2.16-2.52-5.4-3.24-8.64-3.24-5.04.72-9,5.04-11.52,9.36-5.04,8.28-9,18.72-9.72,28.44-.36,2.52-.36,5.4-.36,7.92,0,1.08-.36,5.76,1.08,6.48,0-.36,3.24-4.68,3.96-5.4,1.44-2.16,2.88-4.32,4.32-6.84,4.68-6.84,8.28-14.04,11.88-21.24,2.52-5.4,5.76-10.44,9-15.48Z"/><path class="cls-1" d="m898.73,228.18c-1.8-6.48-1.08-14.04-.36-20.88.36-1.44.36-2.88.72-3.96-1.08,1.08-1.8,2.52-2.88,3.96-5.04,7.56-9.72,16.56-16.2,23.04-4.68,5.04-11.52,7.92-18,4.68-6.84-2.88-10.08-10.44-10.44-18-.72-15.12,5.76-31.32,14.4-43.2,7.56-11.16,21.96-26.28,36.72-18.72,5.04,2.52,8.28,6.84,9.72,11.52,2.88-4.32,5.76-8.64,9-12.6,4.68-5.76,12.24,2.16,7.56,7.56-12.6,15.48-20.16,35.28-20.52,55.44,0,3.6-.36,11.88,4.32,13.32,3.6,1.08,6.48-4.32,8.28-6.84,5.76-9.36,9.72-19.08,14.04-29.16,2.52-6.48,11.52-.72,9,5.76-2.88,6.84-5.04,13.32-8.64,19.8-2.88,5.4-6.12,11.52-10.44,16.2-9.36,9.36-22.68,4.68-26.28-7.92Zm-22.68-10.08c9.36-13.32,18.36-27,27.36-40.68,0-2.52-.36-5.04-1.44-7.56-2.88-6.48-9-6.84-14.4-3.24-11.52,7.2-19.44,21.6-23.04,34.56-1.44,6.12-4.32,15.84-.72,21.6,4.32,6.48,9.72-.72,12.24-4.68Z"/><path class="cls-1" d="m928.61,244.74c.72-7.2,1.8-14.76,2.16-21.96,1.44-16.2,10.08-69.48,16.92-93.6,2.16-7.2,4.32-14.4,7.92-20.88,1.44-2.16,2.52-3.6,3.96-5.4,1.8-1.8,4.32-2.52,6.84-1.44,2.52,1.08,2.88,2.88,2.88,5.4.36,3.96-.72,5.4-4.32,7.2-1.08.72-2.16,1.8-2.52,2.88-1.44,4.32-3.24,8.64-4.32,13.32-6.12,23.04-9.72,46.44-13.32,70.2v1.08c1.08-1.08,1.8-2.16,2.16-2.88,17.64-33.48,42.48-60.84,71.28-84.96,3.6-3.24,7.2-5.76,11.52-7.92,2.88-1.8,6.12-2.88,9.36-3.24,3.96-.36,7.56,2.52,8.64,6.48.36,2.16.36,3.96-1.44,5.4-1.8,1.44-3.96,1.8-5.76,0s-3.6-1.08-5.4,0c-4.32,3.24-9,6.12-12.96,9.36-18.36,16.2-35.28,33.12-49.32,52.92-11.16,15.84-20.88,32.4-27.36,50.4-2.16,6.12-3.6,12.6-3.24,19.08v2.52c-.72,4.68-2.52,5.76-7.2,5.04-5.76-1.08-6.84-3.24-6.48-9Z"/></g></svg>